<?xml version="1.0" standalone="no"?>
<!DOCTYPE svg PUBLIC "-//W3C//DTD SVG 20010904//EN"
 "http://www.w3.org/TR/2001/REC-SVG-20010904/DTD/svg10.dtd">
<svg version="1.0" xmlns="http://www.w3.org/2000/svg"
 width="122.000000pt" height="143.000000pt" viewBox="0 0 122.000000 143.000000"
 preserveAspectRatio="xMidYMid meet">

<g transform="translate(0.000000,143.000000) scale(0.100000,-0.100000)"
fill="#000000" stroke="none">
<path d="M907 1323 c-4 -3 -7 -57 -7 -120 l0 -113 -32 -29 -33 -29 -3 -176 -3
-176 -24 0 -25 0 -2 228 -3 227 -134 3 c-90 2 -138 -1 -147 -9 -11 -9 -14 -56
-14 -230 l0 -219 -40 0 c-37 0 -52 11 -31 24 19 12 33 102 22 144 -15 54 -84
117 -138 127 -120 20 -228 -87 -208 -205 4 -21 13 -46 20 -57 21 -27 18 -33
-19 -33 -57 0 -84 -41 -48 -73 17 -15 70 -17 561 -17 355 0 549 4 562 10 21
12 25 50 7 68 -7 7 -22 12 -35 12 -23 0 -23 0 -23 143 0 163 -8 202 -50 242
l-30 29 0 118 0 118 -58 0 c-32 0 -62 -3 -65 -7z m83 -128 c0 -95 0 -95 -25
-95 -25 0 -25 0 -25 95 0 95 0 95 25 95 25 0 25 0 25 -95z m-315 -155 c-21
-22 -39 -39 -39 -37 -1 1 -17 19 -35 40 l-35 37 74 0 74 0 -39 -40z m-40 -90
c5 0 26 17 47 37 l38 37 0 -172 0 -172 -90 0 -90 0 0 183 1 182 42 -47 c24
-27 47 -48 52 -48z m386 71 c23 -19 24 -25 27 -180 l3 -161 -86 0 -87 0 4 154
c3 147 4 156 27 180 30 32 78 34 112 7z m-703 -121 c124 -76 37 -256 -102
-210 -68 22 -95 109 -54 170 41 61 97 76 156 40z"/>
<path d="M160 1106 c0 -32 46 -83 83 -92 25 -6 27 -4 27 23 0 32 -39 83 -64
83 -8 0 -21 3 -30 6 -12 5 -16 0 -16 -20z"/>
<path d="M134 505 c-12 -31 7 -35 175 -35 128 0 171 3 180 13 24 30 -9 37
-181 37 -138 0 -170 -3 -174 -15z"/>
<path d="M141 418 c-11 -12 -26 -37 -32 -56 -11 -35 -8 -140 6 -174 6 -15 1
-18 -34 -18 -47 0 -69 -26 -51 -60 11 -20 21 -20 575 -20 l565 0 6 25 c10 39
-11 55 -73 55 -62 0 -61 -3 -17 98 13 29 21 59 18 67 -9 22 -489 22 -497 0 -4
-8 5 -47 18 -86 14 -40 25 -74 25 -76 0 -2 -34 -3 -76 -3 -44 0 -73 4 -69 9 3
6 10 35 16 65 11 63 0 123 -33 168 l-19 28 -154 0 c-145 0 -155 -1 -174 -22z
m310 -55 c18 -21 18 -118 0 -160 l-13 -33 -125 0 -124 0 -15 36 c-18 43 -20
123 -5 153 11 20 20 21 140 21 107 0 131 -3 142 -17z m577 -81 c-1 -4 -12 -31
-22 -60 l-20 -52 -135 0 -136 0 -21 60 -21 60 179 0 c99 0 178 -4 176 -8z"/>
<path d="M593 414 c-3 -8 -1 -20 4 -25 5 -5 112 -8 264 -7 246 3 254 4 254 23
0 19 -8 20 -258 23 -227 2 -258 0 -264 -14z"/>
</g>
</svg>
